<svg width="990" height="660" viewBox="0 0 990 660" fill="none" xmlns="http://www.w3.org/2000/svg">
<g clip-path="url(#clip0_49_50445)">
<path d="M824.421 86.0684H749.508V227.296H824.421V86.0684Z" fill="#E6E6E6"/>
<path d="M820.746 86.0684H732.748V227.296H820.746V86.0684Z" fill="#F0F0F0"/>
<path d="M807.328 98.6113H746.122V214.75H807.328V98.6113Z" fill="white"/>
<path d="M789.387 133.25H765.591V178.39H789.387V133.25Z" fill="#EBEBEB"/>
<path d="M238.276 86.0684H163.363V227.296H238.276V86.0684Z" fill="#E6E6E6"/>
<path d="M234.601 86.0684H146.603V227.296H234.601V86.0684Z" fill="#F0F0F0"/>
<path d="M221.183 98.6113H159.977V214.75H221.183V98.6113Z" fill="white"/>
<path d="M203.242 133.25H179.446V178.39H203.242V133.25Z" fill="#EBEBEB"/>
<path d="M889.329 425.484H650.744C646.478 425.484 643.006 422.013 643.006 417.746V70.2261C643.006 65.9599 646.478 62.4883 650.744 62.4883H889.329C893.595 62.4883 897.067 65.9586 897.067 70.2261V417.746C897.067 422.014 893.595 425.484 889.329 425.484ZM650.744 62.8183C646.659 62.8183 643.336 66.1407 643.336 70.2261V417.746C643.336 421.832 646.66 425.154 650.744 425.154H889.329C893.414 425.154 896.737 421.831 896.737 417.746V70.2261C896.737 66.142 893.413 62.8183 889.329 62.8183H650.744Z" fill="#E0E0E0"/>
<path d="M614.204 425.484H375.619C371.353 425.484 367.881 422.013 367.881 417.746V70.2261C367.881 65.9599 371.352 62.4883 375.619 62.4883H614.205C618.471 62.4883 621.943 65.9586 621.943 70.2261V417.746C621.942 422.014 618.47 425.484 614.204 425.484ZM375.619 62.8183C371.535 62.8183 368.211 66.1407 368.211 70.2261V417.746C368.211 421.832 371.535 425.154 375.619 425.154H614.205C618.291 425.154 621.613 421.831 621.613 417.746V70.2261C621.613 66.142 618.289 62.8183 614.205 62.8183H375.619Z" fill="#E0E0E0"/>
<path d="M339.256 425.484H100.671C96.4049 425.484 92.9333 422.013 92.9333 417.746V70.2261C92.9333 65.9599 96.4036 62.4883 100.671 62.4883H339.256C343.522 62.4883 346.994 65.9586 346.994 70.2261V417.746C346.995 422.014 343.523 425.484 339.256 425.484ZM100.671 62.8183C96.5871 62.8183 93.2633 66.1407 93.2633 70.2261V417.746C93.2633 421.832 96.5871 425.154 100.671 425.154H339.256C343.341 425.154 346.664 421.831 346.664 417.746V70.2261C346.664 66.142 343.34 62.8183 339.256 62.8183H100.671Z" fill="#E0E0E0"/>
<path d="M990 506.098H0V506.256H990V506.098Z" fill="#E0E0E0"/>
<path d="M936.349 544.873H862.786V545.429H936.349V544.873Z" fill="#EBEBEB"/>
<path d="M672.766 550.9H653.458V551.456H672.766V550.9Z" fill="#EBEBEB"/>
<path d="M149.581 527.98H53.6514V528.536H149.581V527.98Z" fill="#EBEBEB"/>
<path d="M183.421 527.98H169.355V528.536H183.421V527.98Z" fill="#EBEBEB"/>
<path d="M437.183 537.357H229.134V537.913H437.183V537.357Z" fill="#EBEBEB"/>
<path d="M314.794 146.83C311.484 151.868 309.259 157.403 308.074 163.113L298.981 163.97L298.98 181.579L308.074 182.435C309.258 188.143 311.484 193.678 314.794 198.719L308.986 205.733L321.437 218.185L328.452 212.378C333.491 215.688 339.026 217.913 344.734 219.097L345.589 228.191L363.198 228.189L364.055 219.097C369.764 217.912 375.299 215.686 380.338 212.377L387.353 218.184L399.804 205.732L393.998 198.718C397.306 193.678 399.531 188.143 400.716 182.435L409.809 181.579L409.81 163.97L400.718 163.113C399.532 157.406 397.306 151.871 393.998 146.832L399.804 139.818L387.353 127.366L380.338 133.173C375.299 129.864 369.764 127.637 364.056 126.453L363.199 117.359L345.591 117.361L344.735 126.454C339.028 127.64 333.493 129.864 328.453 133.173L321.437 127.365L308.986 139.817L314.794 146.83ZM371.253 155.918C380.561 165.227 380.561 180.321 371.253 189.631C361.943 198.941 346.849 198.939 337.54 189.631C328.23 180.321 328.231 165.228 337.541 155.918C346.849 146.609 361.941 146.609 371.253 155.918Z" fill="#EBEBEB"/>
<path d="M349.153 359.241C347.499 361.759 346.388 364.525 345.795 367.379L341.25 367.806V376.607L345.795 377.035C346.388 379.887 347.499 382.654 349.153 385.172L346.25 388.678L352.474 394.902L355.98 391.999C358.499 393.653 361.265 394.766 364.118 395.357L364.546 399.902H373.346L373.774 395.359C376.626 394.766 379.393 393.653 381.912 392.001L385.417 394.903L391.641 388.68L388.739 385.174C390.393 382.655 391.504 379.888 392.097 377.036L396.64 376.608V367.808L392.095 367.38C391.503 364.528 390.39 361.761 388.737 359.242L391.64 355.736L385.416 349.514L381.91 352.417C379.392 350.763 376.625 349.65 373.772 349.058L373.345 344.514H364.544L364.117 349.058C361.264 349.651 358.497 350.763 355.979 352.417L352.473 349.514L346.249 355.738L349.153 359.241ZM377.371 363.783C382.022 368.436 382.024 375.98 377.371 380.632C372.718 385.285 365.174 385.285 360.522 380.632C355.869 375.979 355.869 368.436 360.522 363.783C365.175 359.13 372.718 359.13 377.371 363.783Z" fill="#EBEBEB"/>
<path d="M98.2859 267.382C95.6736 271.359 93.9167 275.728 92.9808 280.234L85.8026 280.91V294.811L92.9808 295.487C93.9153 299.993 95.6736 304.361 98.2845 308.341L93.7002 313.879L103.53 323.707L109.068 319.123C113.046 321.735 117.415 323.492 121.92 324.427L122.596 331.605L136.497 331.604L137.173 324.427C141.68 323.491 146.049 321.734 150.027 319.122L155.565 323.706L165.395 313.877L160.81 308.34C163.421 304.361 165.178 299.992 166.114 295.487L173.291 294.811L173.292 280.91L166.114 280.233C165.178 275.728 163.421 271.359 160.809 267.38L165.393 261.843L155.565 252.014L150.027 256.598C146.049 253.986 141.68 252.229 137.174 251.293L136.499 244.115H122.598L121.922 251.293C117.415 252.229 113.047 253.985 109.069 256.597L103.532 252.013L93.7015 261.843L98.2859 267.382ZM142.854 274.554C150.201 281.903 150.203 293.819 142.854 301.167C135.505 308.517 123.59 308.515 116.242 301.167C108.893 293.819 108.893 281.904 116.242 274.554C123.59 267.207 135.505 267.206 142.854 274.554Z" fill="#EBEBEB"/>
<path d="M853.894 238.978C852.671 240.839 851.849 242.885 851.411 244.993L848.051 245.31V251.816L851.411 252.133C851.849 254.242 852.671 256.287 853.894 258.15L851.747 260.741L856.347 265.341L858.939 263.196C860.801 264.418 862.846 265.241 864.954 265.678L865.271 269.037H871.777L872.094 265.678C874.203 265.239 876.248 264.417 878.11 263.195L880.701 265.34L885.302 260.739L883.157 258.148C884.379 256.286 885.201 254.241 885.64 252.132L888.999 251.815V245.309L885.64 244.992C885.201 242.882 884.379 240.838 883.157 238.977L885.302 236.384L880.701 231.784L878.11 233.93C876.248 232.708 874.203 231.886 872.095 231.447L871.778 228.088H865.272L864.955 231.447C862.846 231.886 860.801 232.707 858.94 233.93L856.347 231.784L851.747 236.384L853.894 238.978ZM874.754 242.335C878.192 245.775 878.192 251.35 874.754 254.79C871.314 258.23 865.737 258.23 862.298 254.79C858.858 251.35 858.859 245.775 862.298 242.335C865.737 238.896 871.314 238.896 874.754 242.335Z" fill="#EBEBEB"/>
<path d="M605.801 157.608C604.578 159.469 603.756 161.515 603.318 163.623L599.958 163.94V170.446L603.318 170.763C603.756 172.873 604.578 174.917 605.801 176.78L603.654 179.371L608.255 183.971L610.846 181.825C612.708 183.047 614.753 183.869 616.861 184.308L617.178 187.667H623.684L624.001 184.308C626.11 183.869 628.155 183.047 630.018 181.825L632.609 183.971L637.209 179.371L635.064 176.78C636.286 174.917 637.109 172.873 637.547 170.765L640.906 170.448V163.941L637.547 163.625C637.109 161.515 636.286 159.471 635.064 157.609L637.209 155.017L632.609 150.417L630.018 152.563C628.155 151.341 626.11 150.518 624.002 150.08L623.686 146.721H617.179L616.862 150.08C614.753 150.518 612.708 151.339 610.847 152.563L608.255 150.417L603.654 155.017L605.801 157.608ZM626.659 160.966C630.098 164.406 630.099 169.982 626.659 173.422C623.22 176.862 617.643 176.862 614.204 173.422C610.764 169.982 610.765 164.406 614.204 160.966C617.644 157.526 623.221 157.526 626.659 160.966Z" fill="#F5F5F5"/>
<path d="M170.38 344.338C169.158 346.199 168.336 348.245 167.897 350.354L164.538 350.671V357.178L167.897 357.494C168.336 359.604 169.158 361.648 170.38 363.511L168.234 366.102L172.834 370.702L175.425 368.556C177.288 369.778 179.333 370.601 181.441 371.039L181.757 374.398H188.264L188.581 371.039C190.69 370.601 192.735 369.778 194.597 368.556L197.188 370.702L201.788 366.102L199.642 363.51C200.864 361.647 201.687 359.602 202.125 357.494L205.484 357.178V350.671L202.125 350.354C201.687 348.245 200.864 346.2 199.642 344.339L201.788 341.747L197.188 337.147L194.597 339.292C192.735 338.069 190.69 337.247 188.582 336.809L188.265 333.449H181.759L181.442 336.809C179.333 337.247 177.288 338.068 175.427 339.292L172.834 337.145L168.234 341.745L170.38 344.338ZM191.24 347.696C194.679 351.136 194.68 356.713 191.24 360.151C187.8 363.591 182.223 363.591 178.785 360.151C175.345 356.712 175.345 351.136 178.785 347.696C182.223 344.257 187.8 344.256 191.24 347.696Z" fill="#F5F5F5"/>
<path d="M758.993 265.218C756.892 268.418 755.479 271.932 754.727 275.558L748.953 276.102V287.283L754.728 287.827C755.481 291.452 756.894 294.966 758.995 298.167L755.307 302.62L763.213 310.527L767.667 306.839C770.867 308.941 774.382 310.353 778.007 311.105L778.55 316.879L789.732 316.878L790.276 311.105C793.901 310.353 797.416 308.939 800.616 306.839L805.069 310.527L812.976 302.62L809.288 298.167C811.388 294.967 812.802 291.452 813.554 287.827L819.327 287.283L819.328 276.102L813.554 275.558C812.802 271.933 811.388 268.419 809.287 265.22L812.975 260.766L805.068 252.859L800.614 256.547C797.413 254.446 793.899 253.032 790.275 252.28L789.731 246.506H778.549L778.005 252.28C774.381 253.032 770.867 254.444 767.667 256.546L763.213 252.858L755.307 260.765L758.993 265.218ZM794.843 270.989C800.753 276.9 800.754 286.485 794.843 292.396C788.931 298.307 779.348 298.307 773.437 292.396C767.526 286.485 767.526 276.902 773.437 270.989C779.348 265.078 788.931 265.078 794.843 270.989Z" fill="#EBEBEB"/>
<path d="M536.766 327.91C534.649 331.135 533.225 334.677 532.466 338.33L526.647 338.878V350.147L532.467 350.695C533.225 354.347 534.649 357.889 536.767 361.115L533.05 365.604L541.018 373.572L545.507 369.856C548.732 371.973 552.273 373.397 555.927 374.155L556.475 379.975L567.744 379.974L568.292 374.155C571.945 373.396 575.487 371.972 578.712 369.855L583.201 373.57L591.17 365.603L587.454 361.114C589.571 357.889 590.996 354.347 591.753 350.694L597.572 350.146L597.573 338.877L591.755 338.328C590.996 334.675 589.571 331.134 587.454 327.909L591.17 323.42L583.202 315.452L578.713 319.168C575.487 317.051 571.945 315.625 568.293 314.867L567.745 309.049H556.476L555.929 314.867C552.276 315.626 548.733 317.049 545.508 319.168L541.019 315.451L533.052 323.42L536.766 327.91ZM572.896 333.725C578.853 339.682 578.853 349.342 572.896 355.299C566.939 361.256 557.279 361.256 551.322 355.299C545.365 349.342 545.365 339.683 551.322 333.725C557.28 327.769 566.939 327.768 572.896 333.725Z" fill="#EBEBEB"/>
<path d="M569.793 434.124C566.239 439.535 563.85 445.479 562.576 451.61L552.811 452.53L552.809 471.441L562.576 472.361C563.849 478.491 566.238 484.435 569.793 489.847L563.556 497.38L576.927 510.752L584.46 504.515C589.872 508.068 595.816 510.459 601.946 511.73L602.866 521.495L621.777 521.494L622.697 511.73C628.828 510.456 634.772 508.067 640.184 504.513L647.717 510.75L661.09 497.379L654.853 489.845C658.405 484.433 660.796 478.489 662.068 472.359L671.832 471.439L671.834 452.529L662.07 451.609C660.797 445.479 658.405 439.536 654.853 434.124L661.09 426.591L647.719 413.219L640.186 419.456C634.772 415.903 628.828 413.511 622.699 412.24L621.779 402.475L602.869 402.476L601.949 412.241C595.819 413.514 589.875 415.903 584.463 419.458L576.93 413.221L563.558 426.594L569.793 434.124ZM630.424 443.883C640.42 453.881 640.42 470.09 630.424 480.087C620.426 490.084 604.217 490.084 594.219 480.087C584.221 470.089 584.223 453.881 594.219 443.882C604.218 433.888 620.426 433.887 630.424 443.883Z" fill="#EBEBEB"/>
<path d="M924.677 591.879C924.677 596.35 738.214 599.974 508.2 599.974C278.186 599.974 91.723 596.35 91.723 591.879C91.723 587.409 278.186 583.785 508.2 583.785C738.214 583.785 924.677 587.409 924.677 591.879Z" fill="#F5F5F5"/>
<path d="M154.546 361.887C130.474 390.044 123.444 431.723 136.947 466.217C151.95 452.827 162.516 432.416 163.184 414.563C163.853 396.711 159.18 379.139 154.546 361.887Z" fill="#407BFF"/>
<path d="M150.345 469.47C142.177 481.985 138.269 497.226 139.403 512.126C152.415 507.596 163.887 492.896 170.764 480.957C177.642 469.017 181.487 455.606 184.986 442.279C170.89 447.241 158.514 456.955 150.345 469.47Z" fill="#407BFF"/>
<path d="M147.344 411.058C137.673 445.81 132.747 481.858 132.776 517.932C132.784 528.195 133.2 538.454 134.002 548.686C134.053 549.317 135.043 549.322 134.992 548.686C132.173 512.705 134.265 476.371 141.252 440.959C143.219 430.993 145.576 421.108 148.299 411.322C148.47 410.707 147.515 410.445 147.344 411.058Z" fill="#263238"/>
<path d="M134.273 523.9C144.152 500.382 157.141 478.351 172.153 457.757C172.529 457.241 171.67 456.748 171.298 457.257C159.546 473.378 148.986 490.372 140.247 508.317C137.793 513.357 135.489 518.468 133.319 523.636C133.072 524.223 134.03 524.479 134.273 523.9Z" fill="#263238"/>
<path d="M120.263 488.972C127.074 499.408 130.333 512.115 129.388 524.541C118.537 520.763 108.971 508.506 103.237 498.551C97.5018 488.596 94.2955 477.414 91.3783 466.301C103.132 470.436 113.451 478.537 120.263 488.972Z" fill="#407BFF"/>
<path d="M133.979 532.773C125.875 513.493 115.166 495.623 102.862 478.745C102.49 478.236 101.631 478.73 102.007 479.244C114.255 496.045 124.956 513.842 133.024 533.036C133.267 533.615 134.227 533.36 133.979 532.773Z" fill="#263238"/>
<path d="M134.36 539.177C149.672 523.424 165.307 507.988 180.619 492.236C181.064 491.779 180.365 491.078 179.92 491.536C164.608 507.29 148.972 522.725 133.66 538.478C133.216 538.934 133.914 539.635 134.36 539.177Z" fill="#263238"/>
<path d="M181.195 484.998C167.91 497.81 155.806 511.846 145.088 526.87H147.518C157.629 526.396 167.444 521.408 173.788 513.519C180.132 505.632 182.899 494.975 181.195 484.998Z" fill="#407BFF"/>
<path d="M118.309 454.444C124.013 463.772 129.388 473.297 134.422 483.003C134.715 483.57 135.57 483.069 135.277 482.503C130.243 472.797 124.868 463.272 119.164 453.944C118.832 453.401 117.975 453.897 118.309 454.444Z" fill="#263238"/>
<path d="M104.553 407.346C102.378 417.131 100.22 429.854 100.198 440.043C100.176 450.232 103.285 460.173 109.075 467.002C114.866 473.83 126.554 476.82 131.265 472.913L104.553 407.346Z" fill="#407BFF"/>
<path d="M162.287 543.727H104.255V554.482H162.287V543.727Z" fill="#263238"/>
<path d="M152.889 592.798H116.853L110.304 552.018H158.062L152.889 592.798Z" fill="#263238"/>
<path opacity="0.2" d="M110.732 554.68H157.724L157.139 559.297H111.474L110.732 554.68Z" fill="black"/>
<path d="M838.431 311.295C853.092 302.911 871.773 308 880.155 322.661C888.538 337.322 883.45 356.003 868.788 364.385C857.471 370.857 843.774 369.272 834.252 361.478L825.18 362.905L827.338 353.444C827.251 353.297 827.149 353.165 827.065 353.016C818.681 338.359 823.771 319.678 838.431 311.295Z" fill="#407BFF"/>
<path d="M843.864 304.516C834.102 306.395 825.51 313.51 821.84 322.75" stroke="#407BFF" stroke-width="0.66" stroke-miterlimit="10" stroke-linecap="round" stroke-linejoin="round"/>
<path d="M820.309 327.049C819.646 328.412 819.27 329.915 819.209 331.43" stroke="#407BFF" stroke-width="0.66" stroke-miterlimit="10" stroke-linecap="round" stroke-linejoin="round"/>
<path d="M850.025 349.397L837.118 337.617L841.228 333.113L849.883 341.012L864.265 326.969L868.524 331.331L850.025 349.397Z" fill="white"/>
<path d="M523.482 116.038C538.883 107.088 558.625 112.318 567.575 127.721C576.524 143.123 571.295 162.865 555.892 171.814C544.001 178.723 529.544 177.152 519.442 169.003L509.883 170.575L512.09 160.58C511.998 160.425 511.889 160.287 511.798 160.131C502.849 144.729 508.08 124.987 523.482 116.038Z" fill="#407BFF"/>
<path d="M567.63 120.296C561.366 111.886 550.666 106.989 540.206 107.744" stroke="#407BFF" stroke-width="0.66" stroke-miterlimit="10" stroke-linecap="round" stroke-linejoin="round"/>
<path d="M535.422 108.26C533.822 108.256 532.224 108.587 530.756 109.226" stroke="#407BFF" stroke-width="0.66" stroke-miterlimit="10" stroke-linecap="round" stroke-linejoin="round"/>
<path d="M553.673 139.289H523.544V146.821H553.673V139.289Z" fill="white"/>
<path d="M550.887 150.921V135.703L558.309 143.313L550.887 150.921Z" fill="white"/>
<path d="M720.823 307.621C720.823 307.621 720.022 321.446 713.27 345.674C709.035 360.646 703.894 375.347 697.877 389.695C694.51 397.801 690.645 406.405 686.209 415.456C684.213 419.572 682.076 423.758 679.83 428.052C677.247 501.378 636.095 575.915 636.095 575.915C633.815 577.091 625.852 575.808 625.904 573.493C631.998 563.819 643.987 469.863 651.718 425.29C652.199 419.233 652.894 412.82 653.749 406.033C656.011 388.04 659.36 368.479 662.656 351.27C667.768 324.156 672.632 302.902 672.632 302.902L686.19 304.221L720.823 307.621Z" fill="#EEC1BB"/>
<path d="M635.65 591.733H633.333L632.675 588.812L624.836 592.375H604.973C604.973 592.375 601.82 589.204 611.262 586.692C611.722 586.56 612.168 586.389 612.597 586.176C617.638 583.807 624.801 575.826 624.801 575.826H635.685C636.022 576.332 636.32 576.862 636.576 577.411C637.77 579.762 639.818 584.858 635.65 591.733Z" fill="#263238"/>
<path d="M636.577 577.375C635.151 575.771 628.613 582.808 623.822 585.213C619.546 587.333 614.736 588.277 612.598 586.121C617.639 583.752 626.617 572.664 626.617 572.664L634.314 573.438C634.314 573.438 636.078 576.343 636.577 577.375Z" fill="#EEC1BB"/>
<path d="M737 409.132C735.907 417.018 734.499 425.456 732.777 434.447C747.475 483.492 717.242 579.211 717.242 579.211C712.129 580.226 707.603 579.568 705.306 577.84C711.007 548.998 706.91 474.014 702.474 429.209C702.082 425.148 701.583 420.675 701.048 415.901C700.14 407.813 699.052 398.906 697.895 389.695C695.934 374.285 693.743 358.073 691.766 343.697C689.344 326.327 687.241 311.63 686.155 304.237C685.708 300.995 685.442 299.16 685.442 299.16L727.877 303.756C727.877 303.756 738.673 315.853 740.347 353.638C740.901 372.2 739.781 390.772 737 409.132Z" fill="#EEC1BB"/>
<path d="M718.294 591.735H715.924L715.266 588.814L707.445 592.377H687.598C687.598 592.377 684.445 589.206 693.904 586.694C694.365 586.562 694.812 586.391 695.24 586.178C700.264 583.809 707.443 575.828 707.443 575.828H718.328C718.655 576.339 718.954 576.868 719.219 577.413C720.414 579.764 722.409 584.86 718.294 591.735Z" fill="#263238"/>
<path d="M719.221 577.377C717.778 575.773 711.24 582.81 706.447 585.215C702.171 587.335 697.361 588.279 695.241 586.123C700.265 583.754 708.193 573.439 708.193 573.439H716.941C716.941 573.439 718.703 576.345 719.221 577.377Z" fill="#EEC1BB"/>
<path d="M748.143 201.065C745.964 199.183 742.443 199.905 739.447 199.553C734.898 199.018 731.233 195.731 729.275 192.003C727.317 188.274 726.747 184.102 726.05 180.027C725.353 175.952 724.452 171.778 721.954 168.32C719.457 164.862 713.442 160.574 709.071 163.197L703.218 172.267C706.731 182.893 709.587 193.696 711.769 204.606C712.743 209.478 713.712 214.631 717.248 218.426C720.713 222.143 726.198 223.955 731.58 224.303C734.308 224.478 737.13 224.304 739.624 223.291C742.117 222.279 744.24 220.324 744.793 217.916C745.345 215.509 744.018 212.729 741.482 211.807C743.931 210.774 746.477 209.669 748.11 207.73C749.739 205.791 750.093 202.751 748.143 201.065Z" fill="#263238"/>
<path d="M664.307 155.925C657.617 162.399 656.773 170.104 657.835 175.377C660.082 182.351 663.482 186.957 666.675 193.552L678.006 148.277C673.74 149.962 671.582 149.417 664.307 155.925Z" fill="#263238"/>
<path d="M684.486 148.014C697.546 148.279 710.658 159.199 711.685 169.795C712.712 180.392 702.289 194.065 700.334 194.904L694.148 197.178C694.148 197.178 700.972 181.402 698.14 177.187C695.309 172.972 693.255 172.926 693.255 172.926L684.486 148.014Z" fill="#263238"/>
<path d="M673.397 150.525C680.191 145.72 688.216 148.467 692.979 150.525C698.343 153.622 702.129 158.863 703.379 164.931C704.417 170.627 705.675 177.532 702.763 181.131C701.142 183.203 698.724 184.497 696.101 184.698L663.194 163.835C665.408 158.602 668.919 154.022 673.397 150.525Z" fill="#263238"/>
<path d="M686.669 227.675C689.242 229.515 691.085 228.409 693.759 226.7C709.834 217.379 703.23 210.002 703.23 210.002C699.269 206.768 698.292 202.214 698.209 195.015C698.196 194.807 698.167 194.6 698.123 194.397C697.942 193.468 697.478 192.616 696.794 191.962C694.974 190.121 692.005 190.104 690.165 191.925L690.159 191.93L682.86 195.533C682.859 195.643 682.856 195.753 682.855 195.877C683.529 199.699 684.179 202.644 684.576 204.981C684.571 205.268 684.676 205.559 684.712 205.833C684.707 206.121 684.784 206.423 684.835 206.699C685.232 209.928 680.682 215.603 678.682 217.118C677.487 218.124 677.948 221.481 686.669 227.675Z" fill="#EEC1BB"/>
<path opacity="0.2" d="M682.876 195.424C682.893 195.543 682.89 195.663 682.869 195.781C683.544 199.603 684.192 202.548 684.59 204.885C684.656 205.165 684.703 205.45 684.726 205.737C684.765 206.038 684.782 206.341 684.779 206.643C690.342 203.986 694.955 199.687 698 194.326C697.826 193.409 697.388 192.564 696.74 191.892C694.937 190.035 691.972 189.983 690.107 191.778L682.876 195.424Z" fill="black"/>
<path d="M699.204 167.342C701.308 180.566 702.487 186.096 697.534 194.387C690.068 206.843 673.769 206.852 667.784 194.589C662.491 183.532 659.881 163.816 671.196 155.511C682.51 147.207 697.087 154.105 699.204 167.342Z" fill="#EEC1BB"/>
<path d="M707.09 177.559C706.275 180.646 704.232 182.998 702.098 184.192C698.887 185.989 695.607 180.933 695.849 177.162C696.066 173.768 698.894 170.794 702.43 170.565C705.912 170.338 708.022 174.032 707.09 177.559Z" fill="#EEC1BB"/>
<path opacity="0.2" d="M699.623 178.837C699.37 177.582 699.636 176.232 700.345 175.165C701.052 174.099 702.194 173.329 703.448 173.074" stroke="black" stroke-width="0.66" stroke-miterlimit="10" stroke-linecap="round" stroke-linejoin="round"/>
<path d="M683.079 176.136C683.388 177.53 682.948 178.864 682.097 179.113C681.245 179.362 680.305 178.435 679.997 177.041C679.688 175.647 680.127 174.313 680.979 174.064C681.83 173.815 682.77 174.741 683.079 176.136Z" fill="#263238"/>
<path d="M670.234 179.574C670.531 180.925 670.084 182.223 669.235 182.472C668.386 182.721 667.458 181.827 667.161 180.475C666.864 179.124 667.312 177.826 668.16 177.577C669.009 177.328 669.937 178.222 670.234 179.574Z" fill="#263238"/>
<path d="M684.495 170.605C684.334 170.668 684.153 170.665 683.992 170.582C681.484 169.269 679.404 170.532 679.38 170.547C679.071 170.734 678.682 170.638 678.513 170.317C678.345 169.996 678.46 169.58 678.772 169.386C678.88 169.32 681.491 167.731 684.603 169.363C684.914 169.525 685.028 169.93 684.861 170.268C684.778 170.428 684.646 170.545 684.495 170.605Z" fill="#263238"/>
<path d="M664.149 174.214C664.006 174.206 663.87 174.137 663.774 174.01C663.576 173.748 663.619 173.335 663.87 173.086C666.391 170.609 668.942 171.282 669.05 171.314C669.353 171.398 669.517 171.751 669.414 172.102C669.313 172.452 668.984 172.667 668.68 172.584C668.581 172.556 666.595 172.066 664.591 174.037C664.459 174.164 664.299 174.223 664.149 174.214Z" fill="#263238"/>
<path d="M673.554 177.994C673.554 177.994 672.837 183.418 671.363 187.076C671.105 187.715 671.563 188.422 672.25 188.483C674.017 188.639 675.753 187.595 675.753 187.595L673.554 177.994Z" fill="#D4827D"/>
<path d="M681.484 173.988L678.306 174.093C678.306 174.093 680.543 175.877 681.484 173.988Z" fill="#263238"/>
<path d="M668.476 177.525L665.297 177.628C665.297 177.628 667.535 179.413 668.476 177.525Z" fill="#263238"/>
<path d="M695.228 171.383C695.228 171.383 686.137 164.157 684.565 156.847C684.565 156.847 656.559 155.777 663.274 178.559C663.274 178.559 653.795 159.528 675.191 152.241C696.586 144.955 706.357 172.852 698.213 184.679C698.155 184.583 700.864 175.921 695.228 171.383Z" fill="#263238"/>
<path d="M665.714 156.939C663.325 160.244 662.051 164.224 662.078 168.301C662.599 171.167 666.879 172.528 666.879 172.528L670.505 165.412L671.505 170.901C679.151 168.624 682.907 163.659 684.489 157.194L678.724 150.219C678.722 150.217 667.895 154.224 665.714 156.939Z" fill="#263238"/>
<path d="M681.215 189.963C682.092 190.104 683.029 189.808 683.664 189.188C684.3 188.568 684.618 187.638 684.498 186.758" stroke="#263238" stroke-width="0.66" stroke-miterlimit="10" stroke-linecap="round" stroke-linejoin="round"/>
<path opacity="0.2" d="M707.31 185.679C707.31 185.679 717.18 173.435 709.451 163C709.451 163 715.146 166.918 714.063 173.68C713.214 178.989 710.901 183.292 707.31 185.679Z" fill="black"/>
<path opacity="0.2" d="M736.999 409.132C725.39 413.051 713.29 415.33 701.049 415.902C700.141 407.814 699.053 398.907 697.896 389.696C694.528 397.802 690.664 406.406 686.227 415.457C674.905 414.429 663.886 411.236 653.768 406.051C656.031 388.058 659.38 368.497 662.676 351.288C667.174 348.648 672.036 346.685 677.106 345.463C681.925 344.303 686.863 343.705 691.821 343.681C699.042 343.648 706.249 344.31 713.341 345.658C722.553 347.382 731.562 350.058 740.224 353.639C740.818 372.195 739.74 390.768 736.999 409.132Z" fill="black"/>
<path d="M671.814 299.16H728.163L729.696 306.428C729.696 306.428 750.398 335.075 739.904 406.513C739.904 406.513 694.564 411.751 651.862 402.594C651.862 402.594 661.447 329.197 671.459 305.235L671.814 299.16Z" fill="#263238"/>
<path d="M725.317 277.008L729.324 306.973L667.55 304.484C667.388 298.046 673.13 280.963 672.466 276.291C670.592 270.52 661.102 261.811 658.576 254.838C655.882 245.156 661.444 218.535 663.258 217.69C665.457 216.667 668.198 216.759 669.884 216.017C676.441 214.474 691.358 209.147 698.042 208.315C699.336 208.194 700.62 207.96 701.898 207.812C701.898 207.812 727.172 206.595 728.291 216.879C728.402 217.451 722.267 244.426 725.317 277.008Z" fill="#407BFF"/>
<path opacity="0.2" d="M724.83 270.65L724.327 262.443L714.963 236.947L722.3 266.964L699.053 275.108L724.83 270.65Z" fill="black"/>
<path opacity="0.2" d="M697.926 297.393C698.752 297.285 706.088 289.317 706.088 289.317L727.07 290.112L726.057 282.525C726.68 282.034 701.539 283.179 701.539 283.179L697.927 291.011L697.926 297.393Z" fill="black"/>
<path d="M718.749 210.203C719.83 210.337 724.223 207.849 732.155 218.036C740.086 228.222 748.977 267.055 749.479 272.721C750.116 279.916 745.321 283.463 740.54 284.252C726.194 286.62 699.716 287.098 699.716 287.098V274.901L726.135 268.92C726.135 268.92 711.142 232.829 713.509 223.529C715.874 214.233 718.749 210.203 718.749 210.203Z" fill="#407BFF"/>
<path d="M706.866 207.778C704.959 218.146 697.204 226.286 686.994 228.915C683.413 229.776 679.41 227.794 676.579 225.449C673.709 223.054 671.799 219.707 671.197 216.019C683.633 211.116 694.894 206.912 706.866 207.778Z" fill="#EEC1BB"/>
<path opacity="0.2" d="M726.133 268.921C726.133 268.921 730.427 268.678 732.249 271.018C732.249 271.018 731.152 266.531 725.543 267.474L726.133 268.921Z" fill="black"/>
<path d="M691.182 347.185V211.176H555.366V265.518C557.828 266.452 565.871 267.069 568.317 266.158C572.603 264.561 569.806 259.621 573.945 257.673C580.051 254.798 587.659 258.85 590.86 264.792C593.342 269.401 593.808 271.815 593.58 275.798C593.808 279.78 593.342 282.194 590.86 286.804C587.659 292.747 580.051 296.798 573.945 293.923C569.807 291.974 573.172 287.158 568.886 285.56C566.44 284.65 557.828 285.142 555.366 286.078V347.186H616.101C616.173 348.513 616.021 349.839 615.553 351.097C613.956 355.384 609.399 357.935 607.451 362.073C604.576 368.179 608.628 375.786 614.569 378.987C619.179 381.47 621.593 381.936 625.576 381.708C629.558 381.936 631.972 381.47 636.582 378.987C642.523 375.786 646.575 368.179 643.701 362.073C641.752 357.935 637.196 355.383 635.598 351.097C635.13 349.839 634.978 348.513 635.051 347.186L691.182 347.185Z" fill="#407BFF"/>
<path d="M697.926 347.185V211.176H562.109V265.518C564.571 266.452 567.266 266.686 569.712 265.775C573.998 264.178 576.55 259.621 580.688 257.673C586.794 254.798 594.401 258.85 597.602 264.792C600.085 269.401 600.551 271.815 600.323 275.798C600.551 279.78 600.085 282.194 597.602 286.804C594.401 292.747 586.794 296.798 580.688 293.923C576.55 291.974 573.998 287.418 569.712 285.82C567.266 284.91 564.571 285.142 562.109 286.078V347.186H622.843C622.916 348.513 622.764 349.839 622.295 351.097C620.698 355.384 616.142 357.935 614.193 362.073C611.318 368.179 615.371 375.786 621.313 378.987C625.923 381.47 628.337 381.936 632.32 381.708C636.302 381.936 638.716 381.47 643.326 378.987C649.267 375.786 653.319 368.179 650.444 362.073C648.496 357.935 643.94 355.383 642.342 351.097C641.874 349.839 641.722 348.513 641.795 347.186L697.926 347.185Z" fill="#407BFF"/>
<g opacity="0.3">
<path d="M697.926 347.185V211.176H562.109V265.518C564.571 266.452 567.266 266.686 569.712 265.775C573.998 264.178 576.55 259.621 580.688 257.673C586.794 254.798 594.401 258.85 597.602 264.792C600.085 269.401 600.551 271.815 600.323 275.798C600.551 279.78 600.085 282.194 597.602 286.804C594.401 292.747 586.794 296.798 580.688 293.923C576.55 291.974 573.998 287.418 569.712 285.82C567.266 284.91 564.571 285.142 562.109 286.078V347.186H622.843C622.916 348.513 622.764 349.839 622.295 351.097C620.698 355.384 616.142 357.935 614.193 362.073C611.318 368.179 615.371 375.786 621.313 378.987C625.923 381.47 628.337 381.936 632.32 381.708C636.302 381.936 638.716 381.47 643.326 378.987C649.267 375.786 653.319 368.179 650.444 362.073C648.496 357.935 643.94 355.383 642.342 351.097C641.874 349.839 641.722 348.513 641.795 347.186L697.926 347.185Z" fill="white"/>
</g>
<path d="M697.926 277.284C697.926 277.284 688.81 279.563 687.811 281.708C686.813 283.853 690.186 283.689 690.186 283.689C690.186 283.689 686.486 284.098 686.447 285.691C686.401 287.605 689.934 287.417 689.934 287.417C689.934 287.417 686.927 287.875 686.987 289.295C687.051 290.768 691.053 290.839 691.053 290.839C691.053 290.839 688.996 291.563 689.597 292.526C690.198 293.49 698.69 293.805 701.191 292.216C703.691 290.627 703.701 279.714 703.214 277.333C702.726 274.952 700.92 273.668 697.929 270.051V277.284H697.926Z" fill="#EEC1BB"/>
<path opacity="0.2" d="M690.194 283.868C690.199 283.868 690.204 283.867 690.209 283.867L696.626 282.845C696.712 282.831 696.771 282.741 696.758 282.643C696.745 282.546 696.66 282.476 696.578 282.49L690.162 283.512C690.076 283.526 690.017 283.616 690.03 283.714C690.04 283.806 690.113 283.872 690.194 283.868Z" fill="black"/>
<path opacity="0.2" d="M690.125 287.588H690.129L696.37 287.097C696.457 287.09 696.522 287.004 696.514 286.907C696.507 286.808 696.444 286.749 696.344 286.74L690.103 287.231C690.016 287.238 689.951 287.324 689.959 287.421C689.965 287.519 690.039 287.593 690.125 287.588Z" fill="black"/>
<path opacity="0.2" d="M691.273 291.008L695.921 290.776C696.008 290.772 696.074 290.687 696.07 290.59C696.065 290.491 695.991 290.414 695.904 290.418L691.256 290.65C691.169 290.654 691.103 290.739 691.108 290.837C691.111 290.936 691.186 291.012 691.273 291.008Z" fill="black"/>
<path d="M593.676 273.686C593.676 273.686 603.44 276.416 604.438 278.559C605.438 280.704 602.064 280.541 602.064 280.541C602.064 280.541 605.764 280.95 605.802 282.543C605.848 284.457 602.316 284.268 602.316 284.268C602.316 284.268 605.323 284.725 605.262 286.147C605.199 287.62 601.196 287.691 601.196 287.691C601.196 287.691 603.253 288.413 602.652 289.378C602.052 290.342 593.559 290.657 591.059 289.068C588.559 287.479 588.548 276.566 589.035 274.185C589.522 271.804 589.722 272.197 592.713 268.58L593.258 270.605C593.406 271.155 593.505 271.718 593.554 272.285L593.676 273.686Z" fill="#EEC1BB"/>
<path opacity="0.2" d="M602.056 280.72C602.051 280.72 602.047 280.719 602.04 280.719L595.623 279.697C595.538 279.682 595.478 279.593 595.491 279.495C595.505 279.397 595.589 279.327 595.671 279.342L602.088 280.363C602.173 280.378 602.233 280.468 602.219 280.565C602.208 280.659 602.135 280.724 602.056 280.72Z" fill="black"/>
<path opacity="0.2" d="M602.125 284.439H602.121L595.88 283.948C595.793 283.942 595.728 283.856 595.736 283.758C595.742 283.659 595.806 283.6 595.906 283.592L602.147 284.083C602.234 284.089 602.299 284.175 602.291 284.274C602.283 284.369 602.209 284.443 602.125 284.439Z" fill="black"/>
<path opacity="0.2" d="M600.976 287.86L596.328 287.627C596.241 287.623 596.175 287.539 596.179 287.441C596.184 287.342 596.258 287.266 596.345 287.27L600.993 287.502C601.08 287.506 601.146 287.59 601.142 287.689C601.137 287.787 601.063 287.865 600.976 287.86Z" fill="black"/>
<path d="M393.599 576.521L407.077 577.841L417.041 543.713L396.533 541.48L393.599 576.521Z" fill="#EEC1BB"/>
<path d="M409.031 571.889H404.218C403.129 571.889 402.122 572.439 401.479 573.318C398.703 577.108 396.618 575.676 393.6 572.113C391.681 571.889 391.165 574.092 391.008 574.683L387.409 587.77C387.097 588.863 387.729 590.002 388.822 590.315C389.016 590.37 389.218 590.396 389.42 590.394C395.265 590.394 398.029 590.394 405.303 590.394H427.549C433.613 590.394 434.87 584.282 432.373 583.717C421.139 581.234 413.185 577.929 409.713 574.662C409.069 574.089 409.731 573.661 409.031 571.889Z" fill="#263238"/>
<path d="M419.474 575.609C419.98 575.245 420.283 574.662 420.291 574.039C420.333 573.703 420.181 573.375 419.899 573.19C418.39 572.122 412.373 574.934 411.697 575.264C411.622 575.29 411.563 575.349 411.536 575.425C411.486 575.563 411.559 575.716 411.697 575.767C413.176 576.116 414.687 576.312 416.207 576.347C417.346 576.457 418.491 576.198 419.474 575.609ZM419.521 573.645C419.644 573.721 419.706 573.866 419.678 574.007C419.653 574.457 419.435 574.876 419.082 575.154C417.715 576.176 414.415 575.735 412.64 575.405C415.137 574.305 418.688 573.065 419.521 573.645Z" fill="#407BFF"/>
<path d="M411.902 575.83C413.709 575.077 417.495 572.107 417.29 570.536C417.259 570.206 417.024 569.814 416.207 569.703C412.908 569.325 411.493 575.249 411.493 575.5C411.46 575.602 411.492 575.713 411.572 575.783C411.633 575.801 411.699 575.801 411.761 575.783L411.902 575.83ZM416.096 570.19C416.708 570.253 416.708 570.472 416.708 570.552C416.881 571.51 414.132 573.977 412.167 575.013C412.575 573.631 413.786 570.174 415.875 570.174L416.096 570.19Z" fill="#407BFF"/>
<path d="M412.372 575.604C410.714 575.831 409.176 576.821 408.285 578.237" stroke="#407BFF" stroke-width="0.66" stroke-miterlimit="10" stroke-linecap="round" stroke-linejoin="round"/>
<path d="M415.363 577.854C413.705 578.079 412.167 579.071 411.276 580.486" stroke="#407BFF" stroke-width="0.66" stroke-miterlimit="10" stroke-linecap="round" stroke-linejoin="round"/>
<path d="M419.084 579.748C417.426 579.974 415.888 580.965 414.997 582.38" stroke="#407BFF" stroke-width="0.66" stroke-miterlimit="10" stroke-linecap="round" stroke-linejoin="round"/>
<path opacity="0.3" d="M411.775 561.75L410.553 565.936L394.689 563.499L394.977 560.068L411.775 561.75Z" fill="black"/>
<path d="M472.065 576.521L485.545 577.841L495.507 543.713L475.001 541.48L472.065 576.521Z" fill="#EEC1BB"/>
<path d="M487.497 571.889H482.684C481.595 571.889 480.588 572.439 479.944 573.318C477.169 577.108 475.084 575.676 472.065 572.113C470.146 571.889 469.63 574.092 469.473 574.683L465.874 587.77C465.561 588.863 466.194 590.002 467.287 590.315C467.481 590.37 467.683 590.396 467.885 590.394C473.73 590.394 476.494 590.394 483.768 590.394H506.014C512.078 590.394 513.335 584.282 510.837 583.717C499.604 581.234 491.65 577.929 488.178 574.662C487.535 574.089 488.197 573.661 487.497 571.889Z" fill="#263238"/>
<path d="M497.941 575.609C498.448 575.245 498.75 574.662 498.758 574.039C498.8 573.703 498.648 573.375 498.365 573.19C496.856 572.122 490.839 574.934 490.163 575.264C490.088 575.29 490.029 575.349 490.002 575.425C489.952 575.563 490.025 575.716 490.163 575.767C491.642 576.116 493.153 576.312 494.673 576.347C495.813 576.457 496.957 576.198 497.941 575.609ZM497.987 573.645C498.11 573.721 498.172 573.866 498.144 574.007C498.119 574.457 497.901 574.876 497.547 575.154C496.18 576.176 492.881 575.735 491.106 575.405C493.605 574.305 497.155 573.065 497.987 573.645Z" fill="#407BFF"/>
<path d="M490.368 575.83C492.175 575.077 495.961 572.107 495.756 570.536C495.725 570.206 495.49 569.814 494.673 569.703C491.373 569.325 489.959 575.249 489.959 575.5C489.926 575.602 489.958 575.713 490.038 575.783C490.1 575.801 490.165 575.801 490.227 575.783L490.368 575.83ZM494.563 570.19C495.176 570.253 495.176 570.472 495.176 570.552C495.349 571.51 492.599 573.977 490.635 575.013C491.044 573.631 492.253 570.174 494.343 570.174L494.563 570.19Z" fill="#407BFF"/>
<path d="M490.838 575.604C489.18 575.831 487.642 576.821 486.751 578.237" stroke="#407BFF" stroke-width="0.66" stroke-miterlimit="10" stroke-linecap="round" stroke-linejoin="round"/>
<path d="M493.829 577.854C492.171 578.079 490.633 579.071 489.742 580.486" stroke="#407BFF" stroke-width="0.66" stroke-miterlimit="10" stroke-linecap="round" stroke-linejoin="round"/>
<path d="M497.55 579.748C495.892 579.974 494.355 580.965 493.464 582.38" stroke="#407BFF" stroke-width="0.66" stroke-miterlimit="10" stroke-linecap="round" stroke-linejoin="round"/>
<path opacity="0.3" d="M490.241 561.75L489.02 565.936L473.157 563.499L473.443 560.068L490.241 561.75Z" fill="black"/>
<path d="M500.877 319.34C500.877 319.34 512.049 368.677 517.374 411.651C518.996 424.75 519.306 442.265 516.439 455.16L494.905 562.216L467.807 559.502C472.065 513.331 478 456.385 479.7 432.158C473.739 403.766 461.038 369.397 448.551 335.218L500.877 319.34Z" fill="#407BFF"/>
<g opacity="0.2">
<path d="M500.877 319.34C500.877 319.34 512.049 368.677 517.374 411.651C518.996 424.75 519.306 442.265 516.439 455.16L494.905 562.216L467.807 559.502C472.065 513.331 478 456.385 479.7 432.158C473.739 403.766 461.038 369.397 448.551 335.218L500.877 319.34Z" fill="black"/>
</g>
<path d="M411.835 440.778C412.447 438.108 413.427 432.684 414.628 425.531C414.592 425.523 414.551 425.514 414.516 425.506C415.396 416.045 417.025 372.167 420.017 344.181C422.317 326.354 426.874 314.291 431.461 308.384C431.697 308.08 431.913 307.804 432.111 307.559C432.873 306.607 433.336 306.084 433.336 306.084C434.209 306.302 435.075 306.505 435.938 306.694C436.261 306.765 436.582 306.834 436.9 306.901C469.292 313.674 497.794 305.16 497.794 305.16C500.776 312.524 503.003 328.226 505.179 344.508C501.79 348.226 486.922 353.05 469.865 356.247L465 378.246C462.441 391.885 459.154 405.264 456.362 417.31L453.445 430.503C453.268 431.369 453.094 432.227 452.929 433.069C451.449 440.654 416.23 562.858 416.23 562.858L393.285 561.515C393.287 561.513 403.537 476.934 411.835 440.778Z" fill="#407BFF"/>
<path opacity="0.2" d="M411.835 440.778C412.447 438.108 413.427 432.684 414.628 425.531C414.592 425.523 414.551 425.514 414.516 425.506C415.396 416.045 417.025 372.167 420.017 344.181C422.317 326.354 426.874 314.291 431.461 308.384C431.697 308.08 431.913 307.804 432.111 307.559C432.873 306.607 433.336 306.084 433.336 306.084C434.209 306.302 435.075 306.505 435.938 306.694C436.261 306.765 436.582 306.834 436.9 306.901C469.292 313.674 497.794 305.16 497.794 305.16C500.776 312.524 503.003 328.226 505.179 344.508C501.79 348.226 486.922 353.05 469.865 356.247L465 378.246C462.441 391.885 459.154 405.264 456.362 417.31L453.445 430.503C453.268 431.369 453.094 432.227 452.929 433.069C451.449 440.654 416.23 562.858 416.23 562.858L393.285 561.515C393.287 561.513 403.537 476.934 411.835 440.778Z" fill="black"/>
<path opacity="0.2" d="M464.689 380.278C464.599 380.727 475.197 342.207 475.197 342.207C475.197 342.207 484.119 376.598 470.543 398.109L464.689 380.278Z" fill="black"/>
<path d="M441.886 206.485C441.886 206.485 447.274 210.629 454.213 216.608C455.659 217.854 457.251 218.932 458.935 219.827C463.483 222.241 467.626 223.623 468.749 221.43C468.999 220.949 469.192 220.426 469.333 219.879C470.286 216.208 469.895 211.049 466.928 208.687C463.583 206.025 461.97 203.746 462.573 200.141C462.89 198.098 463.629 195.989 464.494 193.939L461.862 190.86L448.093 176.965C448.436 186.243 449.139 201.448 441.886 206.485Z" fill="#EEC1BB"/>
<path opacity="0.2" d="M462.461 200.932C458.674 198.684 454.52 194.785 455.017 190.33C455.239 188.454 455.644 186.676 456.093 185.537L463.785 195.721C463.152 197.363 462.923 198.448 462.461 200.932Z" fill="black"/>
<path d="M444.193 162.056C445.49 176.202 445.739 182.201 453.04 189.62C464.021 200.778 480.914 197.024 483.824 183.001C486.441 170.38 483.882 149.365 469.994 143.42C456.311 137.563 442.898 147.909 444.193 162.056Z" fill="#EEC1BB"/>
<path d="M461.815 166.517C461.889 167.841 462.702 168.932 463.633 168.95C464.563 168.97 465.258 167.913 465.184 166.587C465.11 165.263 464.297 164.173 463.366 164.155C462.437 164.135 461.741 165.192 461.815 166.517Z" fill="#263238"/>
<path d="M476.477 166.318C476.551 167.602 477.364 168.658 478.29 168.677C479.218 168.697 479.91 167.673 479.836 166.388C479.762 165.105 478.949 164.049 478.022 164.03C477.093 164.01 476.401 165.034 476.477 166.318Z" fill="#263238"/>
<path d="M459.566 161.449C459.747 161.469 459.929 161.418 460.069 161.288C462.248 159.27 464.702 159.979 464.731 159.987C465.095 160.092 465.462 159.886 465.546 159.515C465.627 159.144 465.396 158.755 465.028 158.644C464.9 158.606 461.821 157.714 459.116 160.219C458.847 160.468 458.841 160.911 459.104 161.206C459.231 161.348 459.397 161.431 459.566 161.449Z" fill="#263238"/>
<path d="M481.003 160.744C481.171 160.785 481.347 160.764 481.499 160.669C481.811 160.475 481.891 160.046 481.681 159.712C479.563 156.363 476.415 156.16 476.28 156.153C475.904 156.133 475.604 156.429 475.611 156.816C475.617 157.201 475.927 157.53 476.304 157.551C476.428 157.558 478.868 157.752 480.553 160.414C480.66 160.588 480.826 160.702 481.003 160.744Z" fill="#263238"/>
<path d="M450.222 170.932C450.222 170.932 454.587 164.333 452.788 151.484C452.487 149.33 453.849 147.29 455.985 146.876C462.088 145.691 470.249 137.991 480.204 153.283C480.204 153.283 475.456 134.967 447.657 142.346C422.917 148.913 439.856 169.881 442.407 172.036C444.959 174.193 450.222 170.932 450.222 170.932Z" fill="#263238"/>
<path d="M439.914 173.587C441.585 176.488 444.3 178.31 446.79 178.934C450.535 179.873 452.468 173.852 451.189 170.101C450.038 166.724 446.36 164.488 442.715 165.225C439.125 165.951 438.003 170.27 439.914 173.587Z" fill="#EEC1BB"/>
<path d="M472.91 180.138C471.759 181.91 470.374 185.345 470.374 185.345C470.04 185.275 469.706 185.206 469.378 185.119C464.874 184.065 463.133 182.089 462.568 180.215C462.263 179.19 462.324 178.187 462.477 177.393C462.644 176.473 462.973 175.855 462.973 175.855C465.027 177.841 469.151 179.146 471.381 179.752C472.312 180.017 472.91 180.138 472.91 180.138Z" fill="#263238"/>
<path d="M471.38 179.754L470.593 181.271C466.353 180.268 463.503 178.992 462.475 177.395C462.643 176.475 462.972 175.857 462.972 175.857C465.025 177.841 469.149 179.148 471.38 179.754Z" fill="white"/>
<path d="M469.376 185.121C464.872 184.066 463.131 182.09 462.566 180.217C464.087 180.635 465.874 181.308 467.335 182.379C468.456 183.192 469.049 184.182 469.376 185.121Z" fill="#DC5753"/>
<path d="M472.674 165.932C472.674 165.932 474.887 171.227 477.383 174.529C477.82 175.106 477.55 175.948 476.871 176.197C475.125 176.84 473.08 176.258 473.08 176.258L472.674 165.932Z" fill="#D4827D"/>
<path d="M463.083 164.124L466.33 163.357C466.33 163.357 464.554 165.778 463.083 164.124Z" fill="#263238"/>
<path d="M477.687 164.062L480.934 163.295C480.934 163.295 479.159 165.716 477.687 164.062Z" fill="#263238"/>
<path d="M482.68 159.267C482.68 159.267 491.249 149.131 485.532 140.777C483.384 137.636 479.439 137.169 475.958 135.635C467.926 132.096 461.415 131.381 451.164 141.429C440.499 151.882 438.569 155.402 450.334 168.28C450.334 168.28 449.064 166.596 453.413 162.765C457.763 158.933 462.562 155.525 460.233 151.809C460.233 151.809 463.848 153.204 464.107 156.644L470.467 154.907C470.467 154.907 470.191 152.448 468.508 149.989C468.508 149.989 471.804 151.931 472.874 154.778L478.376 155.814C478.376 155.814 477.568 150.766 476.015 148.954C476.013 148.951 481.053 154.134 482.68 159.267Z" fill="#263238"/>
<path opacity="0.2" d="M448.319 173.17C448.202 171.836 447.582 170.55 446.611 169.627C445.64 168.705 444.325 168.15 442.985 168.102" stroke="black" stroke-width="0.66" stroke-miterlimit="10" stroke-linecap="round" stroke-linejoin="round"/>
<path d="M515.579 290.564C514.783 289.951 514.028 289.272 513.32 288.534C512.72 287.905 512.301 287.093 512.446 287.093C512.415 287.003 512.378 286.915 512.337 286.829L512.082 286.24L511.463 284.656C511.045 283.52 510.643 282.28 510.243 281.022C509.405 278.525 508.622 275.926 507.858 273.307C506.31 268.048 504.835 262.728 503.342 257.389L500.602 246.194C500.205 244.38 499.591 241.738 498.774 238.723L498.771 238.714C496.543 230.491 492.821 219.523 487.952 215.162C480.395 209.38 475.572 216.512 472.462 223.928C469.478 231.046 476.846 250.495 476.846 250.495L485.823 249.845C486.959 253.983 488.149 258.1 489.321 262.302C490.851 267.784 492.671 273.164 494.493 278.545C495.422 281.245 496.387 283.946 497.443 286.666C498.062 288.047 498.627 289.407 499.265 290.85C499.575 291.56 499.921 292.312 500.302 293.063L500.976 294.322C501.258 294.848 501.575 295.351 501.922 295.825C503.253 297.537 504.891 298.92 506.729 299.885C508.146 300.678 509.636 301.299 511.173 301.733C513.971 302.542 516.86 302.892 519.75 302.769L521.371 294.932C519.44 293.488 517.309 291.986 515.579 290.564Z" fill="#263238"/>
<path opacity="0.5" d="M515.579 290.564C514.783 289.951 514.028 289.272 513.32 288.534C512.72 287.905 512.301 287.093 512.446 287.093C512.415 287.003 512.378 286.915 512.337 286.829L512.082 286.24L511.463 284.656C511.045 283.52 510.643 282.28 510.243 281.022C509.405 278.525 508.622 275.926 507.858 273.307C506.31 268.048 504.835 262.728 503.342 257.389L500.602 246.194C500.205 244.38 499.591 241.738 498.774 238.723L498.771 238.714C496.543 230.491 492.821 219.523 487.952 215.162C480.395 209.38 475.572 216.512 472.462 223.928C469.478 231.046 476.846 250.495 476.846 250.495L485.823 249.845C486.959 253.983 488.149 258.1 489.321 262.302C490.851 267.784 492.671 273.164 494.493 278.545C495.422 281.245 496.387 283.946 497.443 286.666C498.062 288.047 498.627 289.407 499.265 290.85C499.575 291.56 499.921 292.312 500.302 293.063L500.976 294.322C501.258 294.848 501.575 295.351 501.922 295.825C503.253 297.537 504.891 298.92 506.729 299.885C508.146 300.678 509.636 301.299 511.173 301.733C513.971 302.542 516.86 302.892 519.75 302.769L521.371 294.932C519.44 293.488 517.309 291.986 515.579 290.564Z" fill="white"/>
<g opacity="0.3">
<path d="M489.612 227.795C491.128 230.385 491.648 231.861 492.599 234.845C493.549 237.83 494.625 253.948 489.184 258.713V247.538C489.382 240.69 489.412 234.642 489.612 227.795Z" fill="black"/>
</g>
<path d="M422.673 248.181L414.246 219.447C419.578 211.491 445.954 205.377 445.954 205.377L459.472 210.121L463.332 206.327C463.332 206.327 470.011 207.818 475.729 209.683C483.363 212.172 487.492 214.175 489.311 218.411C489.311 218.411 492.496 227.796 490.581 247.135C490.054 252.453 490.652 280.101 492.136 289.235L501.13 317.705C469.379 342.433 424.933 319.342 424.933 319.342C426.36 314.975 431.116 301.569 431.761 297.302C431.295 291.858 431.944 283.463 429.638 273.931C429.193 272.088 423.445 249.968 422.673 248.181Z" fill="#263238"/>
<path opacity="0.5" d="M422.673 248.181L414.246 219.447C419.578 211.491 445.954 205.377 445.954 205.377L459.472 210.121L463.332 206.327C463.332 206.327 470.011 207.818 475.729 209.683C483.363 212.172 487.492 214.175 489.311 218.411C489.311 218.411 492.496 227.796 490.581 247.135C490.054 252.453 490.652 280.101 492.136 289.235L501.13 317.705C469.379 342.433 424.933 319.342 424.933 319.342C426.36 314.975 431.116 301.569 431.761 297.302C431.295 291.858 431.944 283.463 429.638 273.931C429.193 272.088 423.445 249.968 422.673 248.181Z" fill="white"/>
<path d="M519.136 279.126C520.125 267.168 529.345 257.534 541.248 256.02L538.811 260.08L543.46 257.318L522.141 284.059L519.136 279.126Z" fill="#407BFF"/>
<path opacity="0.8" d="M519.136 279.126C520.125 267.168 529.345 257.534 541.248 256.02L538.811 260.08L543.46 257.318L522.141 284.059L519.136 279.126Z" fill="white"/>
<path d="M485.736 257.176L493.066 256.953L528.152 268.852L496.173 317.703L464.702 309.846C462.908 309.349 461.857 307.492 462.354 305.698C462.428 305.431 462.535 305.174 462.672 304.932L475.382 281.949C475.636 281.495 475.636 280.941 475.382 280.486L473.657 277.42C473.294 276.791 473.294 276.018 473.657 275.39L482.184 259.411C482.906 258.105 484.247 257.262 485.736 257.176Z" fill="#407BFF"/>
<path d="M528.152 268.853L548.131 256.02L515.279 304.831L496.172 317.703L528.152 268.853Z" fill="#407BFF"/>
<path opacity="0.2" d="M528.152 268.853L548.131 256.02L515.279 304.831L496.172 317.703L528.152 268.853Z" fill="black"/>
<path d="M524.229 291.553C524.229 291.553 516.464 289.517 514.758 290.849C513.051 292.181 515.387 293.446 515.387 293.446C515.387 293.446 512.714 292.243 511.917 293.525C510.96 295.063 513.414 296.376 513.414 296.376C513.414 296.376 511.181 295.501 510.534 296.682C509.862 297.907 512.504 299.626 512.504 299.626C512.504 299.626 510.779 299.361 510.715 300.394C510.65 301.428 516.177 305.208 518.62 304.952C521.062 304.696 526.351 295.818 527.178 293.678C528.004 291.537 527.919 289.87 526.351 288.381L524.229 291.553Z" fill="#EEC1BB"/>
<path opacity="0.2" d="M515.307 293.595C515.311 293.597 515.313 293.599 515.317 293.6L520.104 295.431C520.168 295.455 520.251 295.406 520.29 295.321C520.328 295.236 520.306 295.144 520.244 295.122L515.457 293.291C515.393 293.267 515.309 293.316 515.271 293.401C515.234 293.481 515.251 293.566 515.307 293.595Z" fill="black"/>
<path opacity="0.2" d="M513.46 296.595L513.463 296.596L517.874 298.786C517.936 298.816 518.021 298.774 518.063 298.691C518.107 298.608 518.092 298.534 518.03 298.485L513.619 296.295C513.557 296.265 513.472 296.307 513.43 296.39C513.386 296.472 513.401 296.563 513.46 296.595Z" fill="black"/>
<path opacity="0.2" d="M512.572 299.855L515.793 301.594C515.853 301.627 515.938 301.587 515.983 301.505C516.028 301.423 516.014 301.329 515.954 301.296L512.733 299.556C512.672 299.523 512.588 299.564 512.543 299.646C512.498 299.729 512.511 299.823 512.572 299.855Z" fill="black"/>
<path d="M468.313 207.543L462.454 201.869L459.472 210.121L446.454 199.746L439.853 206.986L456.202 218.379L459.472 211.144L468.313 217.777V207.543Z" fill="#263238"/>
<path opacity="0.3" d="M468.314 207.543C468.729 208.182 468.314 217.777 468.314 217.777L459.472 211.144L456.203 218.379L440.491 207.543L456.572 221.555L459.471 213.047L469.331 221.555L468.314 207.543Z" fill="black"/>
<path opacity="0.3" d="M476.68 252.045L431.645 295.436V286.862C431.645 286.862 472.183 249.728 472.674 249.675C473.165 249.621 476.68 252.045 476.68 252.045Z" fill="black"/>
<path opacity="0.3" d="M434.382 255.479L429.504 235.361L428.538 258.713L434.382 255.479Z" fill="black"/>
<path d="M442.464 178.563C442.464 180.058 443.676 181.269 445.17 181.269C446.664 181.269 447.876 180.058 447.876 178.563C447.876 177.069 446.664 175.857 445.17 175.857C443.674 175.856 442.464 177.068 442.464 178.563Z" fill="#407BFF"/>
<path d="M414.246 219.445C414.246 219.445 408.157 225.373 406.107 245.597C404.637 260.113 400.917 291.416 412.198 295.435C423.478 299.454 472.673 252.42 472.673 252.42L464.687 238.711L428.538 258.71C428.538 258.71 432.223 225.554 425.852 222.525C419.481 219.495 414.246 219.445 414.246 219.445Z" fill="#263238"/>
<path opacity="0.5" d="M414.246 219.445C414.246 219.445 408.157 225.373 406.107 245.597C404.637 260.113 400.917 291.416 412.198 295.435C423.478 299.454 472.673 252.42 472.673 252.42L464.687 238.711L428.538 258.71C428.538 258.71 432.223 225.554 425.852 222.525C419.481 219.495 414.246 219.445 414.246 219.445Z" fill="white"/>
<path d="M467.776 237.695C467.776 237.695 472.522 228.191 474.775 227.773C477.027 227.354 478.842 228.105 478.842 228.105C478.842 228.105 494.179 219.07 495.201 221.447C495.753 222.734 492.347 225.57 485.035 229.741C485.035 229.741 489.245 231.291 487.549 233.758C487.549 233.758 490.648 235.179 488.994 238.259C488.994 238.259 490.417 240.979 488.628 242.716C486.84 244.454 478.413 249.249 473.533 249.965C468.653 250.68 465.807 241.197 465.807 241.197L467.776 237.695Z" fill="#EEC1BB"/>
<path d="M519.588 509.245C523.726 511.193 526.277 515.75 530.563 517.347C532.971 518.245 535.623 518.035 538.054 517.135V455.982H479.524C479.452 454.655 479.603 453.328 480.072 452.071C481.669 447.784 486.226 445.233 488.174 441.095C491.049 434.988 486.997 427.381 481.055 424.18C476.446 421.697 474.032 421.231 470.049 421.46C466.067 421.231 463.653 421.697 459.043 424.18C453.101 427.381 449.048 434.988 451.924 441.095C453.873 445.233 458.429 447.784 460.027 452.071C460.495 453.328 460.647 454.655 460.574 455.982H402.046V591.991H538.054V537.604C535.623 536.705 532.972 536.495 530.563 537.391C526.277 538.989 523.709 543.51 519.588 545.494C514.091 548.139 505.899 544.307 502.673 538.375C500.172 533.776 499.724 531.351 499.953 527.369C499.724 523.386 500.19 520.972 502.673 516.362C505.874 510.422 513.481 506.37 519.588 509.245Z" fill="#407BFF"/>
<path opacity="0.4" d="M519.588 509.245C523.726 511.193 526.277 515.75 530.563 517.347C532.971 518.245 535.623 518.035 538.054 517.135V455.982H479.524C479.452 454.655 479.603 453.328 480.072 452.071C481.669 447.784 486.226 445.233 488.174 441.095C491.049 434.988 486.997 427.381 481.055 424.18C476.446 421.697 474.032 421.231 470.049 421.46C466.067 421.231 463.653 421.697 459.043 424.18C453.101 427.381 449.048 434.988 451.924 441.095C453.873 445.233 458.429 447.784 460.027 452.071C460.495 453.328 460.647 454.655 460.574 455.982H402.046V591.991H538.054V537.604C535.623 536.705 532.972 536.495 530.563 537.391C526.277 538.989 523.709 543.51 519.588 545.494C514.091 548.139 505.899 544.307 502.673 538.375C500.172 533.776 499.724 531.351 499.953 527.369C499.724 523.386 500.19 520.972 502.673 516.362C505.874 510.422 513.481 506.37 519.588 509.245Z" fill="black"/>
<path d="M526.256 509.245C530.394 511.193 532.946 515.75 537.232 517.347C539.64 518.245 542.29 518.035 544.723 517.135V455.982H486.193C486.12 454.655 486.272 453.328 486.741 452.071C488.338 447.784 492.895 445.233 494.843 441.095C497.718 434.988 493.665 427.381 487.724 424.18C483.115 421.697 480.7 421.231 476.718 421.46C472.736 421.231 470.321 421.697 465.712 424.18C459.769 427.381 455.717 434.988 458.593 441.095C460.541 445.233 465.098 447.784 466.695 452.071C467.164 453.328 467.316 454.655 467.243 455.982H408.714V591.991H544.723V537.604C542.292 536.705 539.64 536.495 537.232 537.391C532.946 538.989 530.377 543.51 526.256 545.494C520.76 548.139 512.568 544.307 509.342 538.375C506.84 533.776 506.393 531.351 506.621 527.369C506.393 523.386 506.859 520.972 509.342 516.362C512.543 510.422 520.15 506.37 526.256 509.245Z" fill="#407BFF"/>
<path opacity="0.4" d="M522.139 546.44C522.139 546.44 526.849 554.88 534.938 554.176C543.027 553.473 544.722 549.956 544.722 549.956L544.61 538.35L526.562 545.26C525.318 546.282 523.827 546.631 522.139 546.44Z" fill="black"/>
<path d="M689.624 474.644L736.114 456.781L762.95 430.765C763.694 429.902 771.477 416.482 771.477 416.482L784.648 444.696C784.648 444.696 751.897 477.606 739.902 481.438C730.207 484.535 695.883 492.945 695.883 492.945L689.624 474.644Z" fill="#407BFF"/>
<path opacity="0.4" d="M718.122 487.366C718.122 487.366 723.727 465.393 736.257 460.822C748.786 456.252 764.982 463.42 764.519 463.729C764.054 464.037 750.487 476.67 750.024 476.824C749.678 476.939 732.432 483.019 723.505 485.968L718.122 487.366Z" fill="black"/>
<path d="M633.719 456.682C633.646 458.008 633.798 459.335 634.267 460.593C635.864 464.879 640.42 467.43 642.369 471.569C645.244 477.675 641.191 485.282 635.25 488.483C630.641 490.966 628.226 491.432 624.244 491.204C620.261 491.432 617.847 490.965 613.238 488.483C607.295 485.282 603.244 477.675 606.119 471.569C608.067 467.43 612.624 464.879 614.221 460.593C614.69 459.335 614.842 458.008 614.769 456.682H554.147V517.79C551.685 518.726 548.989 518.958 546.543 518.047C542.256 516.45 539.706 511.893 535.568 509.945C529.461 507.07 521.854 511.122 518.653 517.064C516.17 521.673 515.704 524.087 515.933 528.07C515.704 532.052 516.172 534.467 518.653 539.076C521.854 545.017 529.461 549.07 535.568 546.195C539.706 544.246 542.257 539.69 546.543 538.093C548.988 537.182 551.685 537.414 554.147 538.35V592.692L689.686 593.298V457.288L633.719 456.682Z" fill="#263238"/>
<g opacity="0.4">
<path d="M633.719 456.682C633.646 458.008 633.798 459.335 634.267 460.593C635.864 464.879 640.42 467.43 642.369 471.569C645.244 477.675 641.191 485.282 635.25 488.483C630.641 490.966 628.226 491.432 624.244 491.204C620.261 491.432 617.847 490.965 613.238 488.483C607.295 485.282 603.244 477.675 606.119 471.569C608.067 467.43 612.624 464.879 614.221 460.593C614.69 459.335 614.842 458.008 614.769 456.682H554.147V517.79C551.685 518.726 548.989 518.958 546.543 518.047C542.256 516.45 539.706 511.893 535.568 509.945C529.461 507.07 521.854 511.122 518.653 517.064C516.17 521.673 515.704 524.087 515.933 528.07C515.704 532.052 516.172 534.467 518.653 539.076C521.854 545.017 529.461 549.07 535.568 546.195C539.706 544.246 542.257 539.69 546.543 538.093C548.988 537.182 551.685 537.414 554.147 538.35V592.692L689.686 593.298V457.288L633.719 456.682Z" fill="black"/>
</g>
<path d="M639.718 456.682C639.646 458.008 639.797 459.335 640.266 460.593C641.863 464.879 646.42 467.43 648.368 471.569C651.243 477.675 647.191 485.282 641.249 488.483C636.64 490.966 634.226 491.432 630.243 491.204C626.261 491.432 623.847 490.965 619.237 488.483C613.294 485.282 609.243 477.675 612.118 471.569C614.067 467.43 618.623 464.879 620.221 460.593C620.689 459.335 620.841 458.008 620.768 456.682H560.146V517.79C557.684 518.726 554.989 518.958 552.543 518.047C548.257 516.45 545.705 511.893 541.567 509.945C535.461 507.07 527.853 511.122 524.652 517.064C522.17 521.673 521.704 524.087 521.932 528.07C521.705 532.052 522.171 534.467 524.652 539.076C527.853 545.017 535.461 549.07 541.567 546.195C545.705 544.246 548.257 539.69 552.543 538.093C554.989 537.182 557.684 537.414 560.146 538.35V592.692L695.685 593.298V457.288L639.718 456.682Z" fill="#263238"/>
<path d="M735.189 548.364L756.507 547.074C753.096 565.856 749.588 578.04 751.081 587.683L742.488 593.427L734.531 585.602C734.531 585.602 733.062 570.251 735.189 548.364Z" fill="#E9B376"/>
<path d="M733.251 572.424L740.998 572.515C744.745 579.005 747.339 577.477 751.311 572.898C753.56 572.663 754.134 575.247 754.31 575.943L758.341 591.31C758.692 592.593 757.936 593.919 756.653 594.27C756.425 594.332 756.188 594.361 755.952 594.354C749.111 594.274 745.874 594.236 737.36 594.137L711.32 593.83C704.221 593.747 702.834 586.576 705.766 585.949C718.949 583.198 728.305 579.437 732.414 575.66C733.175 574.999 732.407 574.488 733.251 572.424Z" fill="#407BFF"/>
<path d="M729.289 576.725C731.227 577.012 733.013 578.192 734.037 579.862" stroke="#263238" stroke-width="0.66" stroke-miterlimit="10" stroke-linecap="round" stroke-linejoin="round"/>
<path d="M725.757 579.32C727.695 579.608 729.481 580.788 730.505 582.458" stroke="#263238" stroke-width="0.66" stroke-miterlimit="10" stroke-linecap="round" stroke-linejoin="round"/>
<path d="M721.375 581.484C723.312 581.772 725.098 582.952 726.123 584.622" stroke="#263238" stroke-width="0.66" stroke-miterlimit="10" stroke-linecap="round" stroke-linejoin="round"/>
<path opacity="0.7" d="M756.653 594.27C756.425 594.332 756.188 594.361 755.952 594.355C749.112 594.274 745.874 594.236 737.36 594.137L711.32 593.83C707.479 593.786 705.323 591.666 704.607 589.629C705.688 589.65 757.429 590.659 758.113 590.437L758.387 591.583C758.572 592.776 757.846 593.944 756.653 594.27Z" fill="white"/>
<path d="M816.83 491.824C816.83 491.824 758.608 461.757 747.272 460.901C735.936 460.044 725.101 466.183 722.934 489.657C720.768 513.132 725.101 573.501 725.101 573.501L756.508 574.039L760.4 504.1C760.4 504.1 809.041 539.631 810.485 539.27C811.929 538.909 830.916 538.049 830.916 538.049L816.83 491.824Z" fill="#263238"/>
<path opacity="0.3" d="M816.83 491.824C816.83 491.824 758.608 461.757 747.272 460.901C735.936 460.044 725.101 466.183 722.934 489.657C720.768 513.132 725.101 573.501 725.101 573.501L756.508 574.039L760.4 504.1C760.4 504.1 809.041 539.631 810.485 539.27C811.929 538.909 830.916 538.049 830.916 538.049L816.83 491.824Z" fill="white"/>
<path opacity="0.4" d="M758.615 536.809C758.615 536.809 732.956 545.795 732.683 566.956C732.41 588.117 755.039 584.09 755.039 584.09L758.615 536.809Z" fill="black"/>
<path d="M839.116 591.94L833.344 570.956C853.52 568.771 867 573.74 876.38 569.312L884.826 576.343L879.247 586.813C879.247 586.813 864.374 591.865 839.116 591.94Z" fill="#E9B376"/>
<path d="M866.197 592.089L863.954 584.164C869.443 578.387 867.103 576.203 861.237 573.532C860.319 571.31 862.781 569.946 863.437 569.558L877.89 560.816C879.092 560.071 880.671 560.442 881.415 561.646C881.547 561.86 881.648 562.092 881.712 562.335C883.692 569.334 884.63 572.645 887.094 581.356L894.63 607.996C896.684 615.259 889.792 618.834 888.268 616.034C881.489 603.423 874.837 595.017 869.747 591.966C868.845 591.391 868.556 592.327 866.197 592.089Z" fill="#407BFF"/>
<path d="M871.777 594.832C871.486 592.771 872.152 590.594 873.544 589.047" stroke="#263238" stroke-width="0.66" stroke-miterlimit="10" stroke-linecap="round" stroke-linejoin="round"/>
<path d="M875.486 597.652C875.196 595.59 875.861 593.414 877.253 591.865" stroke="#263238" stroke-width="0.66" stroke-miterlimit="10" stroke-linecap="round" stroke-linejoin="round"/>
<path d="M879.013 601.467C878.723 599.405 879.388 597.228 880.781 595.68" stroke="#263238" stroke-width="0.66" stroke-miterlimit="10" stroke-linecap="round" stroke-linejoin="round"/>
<path opacity="0.7" d="M881.417 561.647C881.549 561.861 881.649 562.093 881.714 562.336C883.694 569.335 884.631 572.647 887.095 581.357L894.631 607.997C895.743 611.927 894.231 614.764 892.371 616.109C892.068 615 877.5 561.945 877.069 561.314L878.154 560.689C879.315 560.142 880.724 560.529 881.417 561.647Z" fill="white"/>
<path d="M880.639 503.285L883.167 515.976C883.167 515.976 889.647 541.148 880.564 553.791C871.886 565.87 859.084 568.025 859.084 568.025L861.716 592.301L859.084 593.94C859.084 593.94 842.336 593.94 808.053 592.375C775.485 590.888 747.491 589.332 741.713 579.219C735.934 569.108 734.601 564.197 744.05 552.134C752.589 541.232 817.608 525.175 819.87 524.524L818.962 518.984L817.908 515.061L880.639 503.285Z" fill="#263238"/>
<path opacity="0.3" d="M880.639 503.285L883.167 515.976C883.167 515.976 889.647 541.148 880.564 553.791C871.886 565.87 859.084 568.025 859.084 568.025L861.716 592.301L859.084 593.94C859.084 593.94 842.336 593.94 808.053 592.375C775.485 590.888 747.491 589.332 741.713 579.219C735.934 569.108 734.601 564.197 744.05 552.134C752.589 541.232 817.608 525.175 819.87 524.524L818.962 518.984L817.908 515.061L880.639 503.285Z" fill="white"/>
<path opacity="0.4" d="M859.084 568.024C857.085 568.546 786.457 566.268 786.457 566.268C786.457 566.268 807.333 569.847 822.771 571.15C838.208 572.452 859.084 568.024 859.084 568.024Z" fill="black"/>
<path opacity="0.4" d="M819.871 524.524L860.541 517.432C860.541 517.432 831.225 516.955 819.871 524.524Z" fill="black"/>
<path d="M716.19 495.726C716.19 495.726 712.797 490.503 707.747 489.492C702.698 488.481 698.935 486.329 695.129 485.838C691.323 485.346 694.777 489.207 697.029 490.888C699.28 492.57 701.818 494.5 700.28 495.987C698.743 497.475 680.91 501.999 679.015 504.303C677.118 506.608 680.232 506.778 680.232 506.778C680.232 506.778 675.93 507.994 675.947 509.829C675.952 510.305 676.735 511.406 678.782 511.161C683.388 510.606 692.992 508.945 692.992 508.945C692.439 509.029 680.731 511.926 679.033 512.589C676.815 513.455 676.211 514.995 676.756 516.265C677.531 518.072 692.171 514.974 692.879 515.275C692.879 515.275 684.391 516.777 683.579 519.18C682.767 521.584 688.162 520.929 692.81 519.449C697.07 518.092 705.783 516.546 709.979 514.747C715.151 512.53 718.125 509.879 718.238 504.604C718.349 499.328 716.19 495.726 716.19 495.726Z" fill="#E9B376"/>
<path d="M710.61 495.613L723.633 490.404L728.132 504.491L712.859 509.938L710.61 495.613Z" fill="#E9B376"/>
<path d="M805.078 398.18C805.078 398.18 801.542 390.193 802.292 374.379C802.288 374.364 801.426 374.204 801.422 374.189C801.518 371.98 801.69 369.918 801.887 368.12C801.889 368.069 801.884 368.053 801.884 368.053L784.647 385.392C786.254 390.007 786.742 399.551 786.654 403.652C786.654 403.652 785.772 411.251 795.141 409.333C801.987 407.93 805.078 398.18 805.078 398.18Z" fill="#E9B376"/>
<path opacity="0.2" d="M785.891 392.122L796.905 386.713C796.715 390.586 794.537 395.644 786.52 397.932C786.52 397.932 786.358 393.688 785.891 392.122Z" fill="black"/>
<path d="M799.69 358.19C801.394 371.34 802.621 378.721 797.317 386.597C789.339 398.444 772.529 395.661 766.915 383.249C761.862 372.076 759.924 352.449 771.698 344.945C783.299 337.551 797.986 345.04 799.69 358.19Z" fill="#E9B376"/>
<path d="M794.626 339.69C788.538 332.564 777.202 338.803 772.893 343.428C772.249 344.12 783.908 347.414 783.218 347.303L786.901 350.356C787.376 350.15 788.358 354.67 789.19 358.585C789.953 362.18 791.669 365.491 794.177 368.18C796.278 370.432 799.091 373.13 802.251 375.32C806.363 372.234 805.106 364.284 805.633 359.307C806.417 351.891 806.244 338.006 794.626 339.69Z" fill="#263238"/>
<path d="M806.908 368.034C806.513 371.58 804.508 374.6 802.176 376.376C798.669 379.049 796.406 375.088 795.985 370.922C795.606 367.173 795.817 362.477 800.01 361.441C804.14 360.419 807.359 363.979 806.908 368.034Z" fill="#E9B376"/>
<path d="M781.811 365.522C782.067 366.853 781.567 368.059 780.696 368.218C779.823 368.377 778.908 367.428 778.652 366.098C778.396 364.767 778.895 363.561 779.768 363.402C780.639 363.243 781.554 364.192 781.811 365.522Z" fill="#263238"/>
<path d="M768.817 368.294C769.073 369.624 768.574 370.831 767.702 370.989C766.829 371.148 765.914 370.198 765.658 368.869C765.402 367.539 765.901 366.332 766.774 366.174C767.646 366.014 768.561 366.963 768.817 368.294Z" fill="#263238"/>
<path d="M772.918 366.738C772.918 366.738 769.98 374.157 769.149 377.107C771.322 378.423 774.362 377.038 774.362 377.038L772.918 366.738Z" fill="#D58745"/>
<path d="M783.854 358.629C783.67 358.749 783.426 358.77 783.213 358.662C780.685 357.371 778.638 358.494 778.617 358.506C778.312 358.677 777.922 358.572 777.748 358.27C777.574 357.967 777.681 357.582 777.983 357.41C778.09 357.348 780.655 355.94 783.791 357.544C784.104 357.703 784.228 358.083 784.068 358.394C784.018 358.491 783.943 358.571 783.854 358.629Z" fill="#263238"/>
<path d="M779.536 380.438C781.696 380.039 783.163 378.641 784.525 376.713" stroke="#263238" stroke-width="0.99" stroke-miterlimit="10" stroke-linecap="round" stroke-linejoin="round"/>
<path opacity="0.2" d="M803.248 365.012C802.575 364.336 801.453 364.257 800.587 364.655C799.721 365.054 799.091 365.849 798.682 366.709C798.191 367.743 797.974 368.906 798.064 370.046" stroke="black" stroke-width="0.66" stroke-miterlimit="10" stroke-linecap="round" stroke-linejoin="round"/>
<path d="M761.981 363.789C761.86 363.786 761.739 363.749 761.632 363.674C761.343 363.473 761.269 363.077 761.467 362.791C763.448 359.911 766.362 359.995 766.492 359.98C766.842 359.992 767.119 360.285 767.111 360.635C767.104 360.984 766.816 361.257 766.469 361.249C766.347 361.241 764.102 361.205 762.511 363.517C762.388 363.699 762.186 363.794 761.981 363.789Z" fill="#263238"/>
<path d="M794.625 339.691C794.625 339.691 786.53 329.688 772.529 332.988C761.266 335.643 755.392 343.882 755.173 351.764C755.079 355.151 755.831 357.671 756.719 359.444C757.389 360.782 759.315 360.581 759.746 359.147C759.868 358.739 760.015 358.339 760.187 357.947C760.231 358.035 760.28 358.124 760.332 358.208C761.151 359.583 763.335 359.078 763.368 357.477C763.378 356.971 763.436 356.466 763.541 355.967C763.549 355.979 763.555 355.99 763.563 356.002C764.314 357.209 766.195 356.843 766.495 355.455C767.819 349.328 775.286 344.726 782.033 347.465L786.901 350.355C792.482 347.096 794.625 339.691 794.625 339.691Z" fill="#263238"/>
<path opacity="0.4" d="M815.639 515.43L814.87 520.58L792.161 527.417L797.395 530.771L819.871 524.523L820.797 514.518L815.639 515.43Z" fill="black"/>
<path d="M832.606 399.799C822.409 393.261 804.439 396.369 804.439 396.369L771.477 416.484L794.016 469.463C794.016 469.463 803.422 491.996 808.496 507.001C809.753 510.72 812.158 515.905 816.051 515.398L878.657 504.079C881.717 503.526 883.649 500.474 882.82 497.477C876.777 475.646 841.739 405.656 832.606 399.799Z" fill="#407BFF"/>
<path opacity="0.4" d="M838.491 429.268C838.491 429.268 828.459 448.154 810.843 464.621C803.73 471.271 798.789 480.86 798.789 480.86L794.372 469.578L838.491 429.268Z" fill="black"/>
<path d="M807.455 414.711L764.775 467.931L714.668 490.68L719.663 511.421C719.663 511.421 760.291 500.458 776.62 490.283C792.948 480.107 819.869 451.651 819.869 451.651C819.869 451.651 843.347 432.81 842.226 417.566C841.108 402.322 818.761 398.762 807.455 414.711Z" fill="#407BFF"/>
<path d="M784.286 408.666C784.286 408.666 785.871 400.536 786.64 400.863C787.408 401.191 795.037 405.771 795.037 405.771L803.57 392.988L808.692 396.377L796.904 420.814L784.286 408.666Z" fill="#407BFF"/>
<path opacity="0.4" d="M780.539 442.775L770.697 429.266L778.648 450.419L782.52 446.3L809.696 411.947L780.539 442.775Z" fill="black"/>
<path opacity="0.4" d="M784.286 408.667C784.716 408.821 791.784 413.585 791.398 413.663C791.011 413.741 794.372 407.963 794.372 407.963L801.864 410.813L808.014 395.928L801.961 413.075L794.863 409.643L791.398 415.927L784.286 408.667Z" fill="black"/>
<path d="M297.953 307.491C298.026 306.164 297.874 304.838 297.405 303.58C295.808 299.294 291.251 296.742 289.303 292.604C286.428 286.498 290.481 278.891 296.422 275.69C301.031 273.207 303.446 272.741 307.428 272.969C311.411 272.741 313.825 273.208 318.434 275.69C324.376 278.891 328.428 286.498 325.553 292.604C323.605 296.742 319.048 299.294 317.451 303.58C316.982 304.838 316.83 306.164 316.903 307.491H377.525V246.383C379.987 245.447 382.683 245.215 385.129 246.126C389.415 247.723 391.966 252.279 396.104 254.228C402.211 257.103 409.818 253.05 413.019 247.109C415.502 242.5 415.968 240.085 415.739 236.103C415.968 232.12 415.502 229.706 413.019 225.097C409.818 219.154 402.211 215.103 396.104 217.978C391.966 219.926 389.415 224.483 385.129 226.08C382.684 226.991 379.987 226.759 377.525 225.823V171.481L241.986 170.875V306.884L297.953 307.491Z" fill="#263238"/>
<g opacity="0.4">
<path d="M297.953 307.491C298.026 306.164 297.874 304.838 297.405 303.58C295.808 299.294 291.251 296.742 289.303 292.604C286.428 286.498 290.481 278.891 296.422 275.69C301.031 273.207 303.446 272.741 307.428 272.969C311.411 272.741 313.825 273.208 318.434 275.69C324.376 278.891 328.428 286.498 325.553 292.604C323.605 296.742 319.048 299.294 317.451 303.58C316.982 304.838 316.83 306.164 316.903 307.491H377.525V246.383C379.987 245.447 382.683 245.215 385.129 246.126C389.415 247.723 391.966 252.279 396.104 254.228C402.211 257.103 409.818 253.05 413.019 247.109C415.502 242.5 415.968 240.085 415.739 236.103C415.968 232.12 415.502 229.706 413.019 225.097C409.818 219.154 402.211 215.103 396.104 217.978C391.966 219.926 389.415 224.483 385.129 226.08C382.684 226.991 379.987 226.759 377.525 225.823V171.481L241.986 170.875V306.884L297.953 307.491Z" fill="black"/>
</g>
<path d="M302.062 307.491C302.135 306.164 301.983 304.838 301.514 303.58C299.917 299.294 295.361 296.742 293.412 292.604C290.537 286.498 294.59 278.891 300.531 275.69C305.14 273.207 307.555 272.741 311.537 272.969C315.52 272.741 317.934 273.208 322.543 275.69C328.486 278.891 332.537 286.498 329.662 292.604C327.714 296.742 323.157 299.294 321.56 303.58C321.091 304.838 320.94 306.164 321.012 307.491H381.634V246.383C384.096 245.447 386.792 245.215 389.238 246.126C393.525 247.723 396.075 252.279 400.213 254.228C406.32 257.103 413.927 253.05 417.128 247.109C419.611 242.5 420.077 240.085 419.848 236.103C420.077 232.12 419.61 229.706 417.128 225.097C413.927 219.154 406.32 215.103 400.213 217.978C396.075 219.926 393.524 224.483 389.238 226.08C386.793 226.991 384.096 226.759 381.634 225.823V171.481L246.096 170.875V306.884L302.062 307.491Z" fill="#263238"/>
<path d="M211.946 234.689C211.946 234.689 202.048 269.754 208.379 275.858C214.71 281.961 236.865 277.892 235.735 277.44C234.605 276.988 241.387 234.819 241.838 236.347C242.29 237.877 211.946 234.689 211.946 234.689Z" fill="#B97964"/>
<path d="M224.259 551.294L224.228 581.713L238.352 582.812L243.317 554.235C236.857 549.569 230.5 548.456 224.259 551.294Z" fill="#B97964"/>
<path d="M224.102 578.538C222.712 582.552 222.621 598.978 222.621 598.978L252.56 599.012C254.339 593.072 251.585 589.017 248.094 588.48C246.593 588.252 244.828 586.582 243.541 585.125C243.532 584.936 241.701 575.811 240.57 575.375C240.57 575.375 239.79 574.426 239.126 575.374C238.462 576.32 237.885 579.404 237.885 579.404C233.214 573.122 228.633 573.96 224.102 578.538Z" fill="#263238"/>
<path d="M223.739 583.309C227.122 581.958 230.752 582.472 233.701 584.716C234.217 585.109 234.707 584.191 234.194 583.801C231.053 581.411 227.081 580.85 223.479 582.288C222.893 582.521 223.146 583.545 223.739 583.309Z" fill="white"/>
<path d="M252.471 596.612C252.47 596.612 252.47 596.612 252.471 596.612L222.972 596.578C222.701 596.578 222.483 596.34 222.483 596.047C222.483 595.755 222.702 595.518 222.973 595.518L252.472 595.552C252.743 595.552 252.961 595.79 252.961 596.083C252.959 596.374 252.74 596.612 252.471 596.612Z" fill="white"/>
<path d="M285.192 547.327L285.158 581.659L298.749 582.78L305.435 550.643C299.978 546.253 293.642 544.101 285.192 547.327Z" fill="#B97964"/>
<path d="M284.543 578.611C283.153 582.625 283.062 599.051 283.062 599.051L317.457 599.092C319.237 593.152 315.519 589.63 312.028 589.091C310.527 588.863 305.27 586.655 303.983 585.197C303.973 585.009 302.144 575.885 301.013 575.448C301.013 575.448 300.233 574.499 299.569 575.447C298.905 576.393 298.328 579.477 298.328 579.477C293.655 573.193 289.075 574.033 284.543 578.611Z" fill="#263238"/>
<path d="M284.18 583.379C287.563 582.028 291.193 582.542 294.142 584.785C294.658 585.178 295.148 584.259 294.636 583.87C291.494 581.479 287.522 580.918 283.92 582.356C283.334 582.591 283.587 583.615 284.18 583.379Z" fill="white"/>
<path d="M317.46 596.689L283.412 596.65C283.141 596.65 282.923 596.412 282.923 596.119C282.923 595.827 283.143 595.59 283.413 595.59L317.461 595.629C317.732 595.629 317.95 595.867 317.95 596.16C317.95 596.452 317.731 596.689 317.46 596.689Z" fill="white"/>
<path d="M218.402 566.285L248.5 567.887C255.254 546.003 261.928 467.534 262.618 443.976C263.442 415.827 273.521 345.182 264.61 330.482C255.698 315.781 215.388 327.489 215.388 327.489C215.388 327.489 220.411 413.51 218.403 440.943C216.662 464.719 213.969 534.61 218.402 566.285Z" fill="#263238"/>
<path d="M251.749 559.957L249.793 570.013L217.176 568.953L215.98 559.299L251.749 559.957Z" fill="#407BFF"/>
<path d="M278.513 566.285L308.352 567.887C311.985 543.661 326.579 455.434 325.38 438.534C323.916 417.89 306.633 328.534 300.208 321.645C293.782 314.756 246.73 332.614 246.73 332.614C246.73 332.614 266.067 409.454 281.314 442.687C284.481 449.589 276.063 536.82 278.513 566.285Z" fill="#263238"/>
<path d="M311.764 560.712L310.242 570.014L277.081 567.887L276.415 558.148L311.764 560.712Z" fill="#407BFF"/>
<path opacity="0.3" d="M265.555 400.356L256.793 371.072L241.247 365.998L253.4 375.42L263.175 428.8L265.555 400.356Z" fill="black"/>
<path d="M282.322 140.981C282.322 142.244 282.876 143.197 283.673 143.331C284.472 143.464 285.203 142.4 285.269 141.114C285.335 139.829 284.737 138.898 283.939 138.765C283.141 138.631 282.476 139.761 282.322 140.981Z" fill="#263238"/>
<path d="M282.831 140.805C283.275 144.877 284.282 148.869 285.824 152.664C283.825 153.397 281.605 153.219 279.75 152.176L282.831 140.805Z" fill="#A24E3F"/>
<path d="M280.038 136.925C279.874 136.941 279.711 136.902 279.572 136.814C279.284 136.53 279.282 136.067 279.564 135.779C279.567 135.776 279.569 135.774 279.572 135.771C281.05 133.93 283.333 132.921 285.69 133.067C286.081 133.102 286.369 133.445 286.334 133.836C286.334 133.839 286.334 133.84 286.334 133.843C286.267 134.236 285.912 134.513 285.515 134.486C283.647 134.401 281.853 135.227 280.705 136.702C280.536 136.889 280.283 136.974 280.038 136.925Z" fill="#263238"/>
<path d="M282.854 157.76C282.689 158.434 282.483 159.099 282.241 159.75C280.885 163.47 278.418 166.701 275.162 169.019C274.343 169.609 273.479 170.136 272.575 170.591C265.482 174.322 256.733 172.953 251.167 167.245C244.003 160.134 244.189 151.92 243.374 138.016C243.158 135.028 243.653 132.033 244.82 129.266C248.924 119.556 260.258 114.955 270.134 118.99C270.137 118.991 270.139 118.993 270.142 118.993C283.96 124.548 285.866 145.228 282.854 157.76Z" fill="#B97964"/>
<path opacity="0.2" d="M275.112 169.02C274.293 169.61 273.429 170.137 272.525 170.592C267.726 173.108 262.027 173.354 257.022 171.262C257.663 169.591 258.514 168.005 259.558 166.544C264.876 165.888 270.275 166.749 275.112 169.02Z" fill="black"/>
<path d="M246.642 187.056C253.619 193.28 270.687 190.989 270.687 190.989C270.687 190.989 281.339 188.111 279.093 184.848C272.831 183.828 269.784 180.95 268.525 177.251C267.845 174.968 267.631 172.573 267.895 170.208C267.996 168.888 268.172 167.576 268.423 166.276L247.322 150.916C250.079 161.056 253.466 179.711 246.642 187.056Z" fill="#B97964"/>
<path d="M275.112 145.112L278.158 146.233L276.644 140.109C276.644 140.109 281.103 133.417 276.644 127.611C276.644 127.611 288.965 123.931 282.005 117.573C279.418 115.197 276.202 117.573 267.693 113.941C263.081 111.951 248.651 111.8 247.937 117.573C247.937 117.573 237.539 117.573 236.417 134.973C235.752 145.294 239.786 155.371 247.427 162.479C247.427 162.479 259.986 165.39 266.146 160.438C272.304 155.484 275.112 145.112 275.112 145.112Z" fill="#263238"/>
<path d="M267.079 146.098C267.617 148.747 269.343 151.017 271.776 152.272C274.652 153.477 276.557 149.495 276.132 145.311C275.74 141.597 273.784 136.376 270.703 137.08C267.625 137.784 266.075 142.351 267.079 146.098Z" fill="#B97964"/>
<path d="M225.185 183.711C225.185 183.711 220.283 185.201 217.843 186.095C212.759 187.957 209.403 193.618 207.563 199.175C203.067 212.754 195.802 244.902 195.802 244.902L222.166 250.444L236.231 220.155L225.185 183.711Z" fill="#407BFF"/>
<path opacity="0.5" d="M225.185 183.711C225.185 183.711 218.13 185.024 214.415 188.092C211.589 190.427 209.337 193.814 207.563 199.175C203.067 212.754 195.802 244.902 195.802 244.902L222.166 250.444L236.231 220.155L225.185 183.711Z" fill="white"/>
<path d="M289.036 185.27C281.26 184.433 257.341 179.029 225.185 183.711L217.661 302.604C217.661 302.604 216.695 320.794 213.847 336.403C246.524 350.435 285.182 346.422 307.041 334.626C306.788 335.123 306.072 322.148 304.952 303.144C302.976 269.656 299.743 217.441 295.572 187.21C295.457 186.464 289.811 185.353 289.036 185.27Z" fill="#407BFF"/>
<g opacity="0.5">
<path d="M289.036 185.27C281.26 184.433 257.341 179.029 225.185 183.711L217.661 302.604C217.661 302.604 216.695 320.794 213.847 336.403C246.524 350.435 285.182 346.422 307.041 334.626C306.788 335.123 306.072 322.148 304.952 303.144C302.976 269.656 299.743 217.441 295.572 187.21C295.457 186.464 289.811 185.353 289.036 185.27Z" fill="white"/>
</g>
<path d="M246.288 182.474C247.217 179.71 248.511 177.765 250.169 176.641L268.076 178.021L276.471 183.556L246.288 182.474Z" fill="#407BFF"/>
<path opacity="0.5" d="M246.288 182.474C247.217 179.71 248.511 177.765 250.169 176.641L268.076 178.021L276.471 183.556L246.288 182.474Z" fill="white"/>
<path opacity="0.2" d="M288.203 222.275C291.07 235.667 295.194 261.918 302.974 271.067L301.125 244.499L288.203 222.275Z" fill="black"/>
<path opacity="0.2" d="M220.49 250.073L221.183 215.736L213.976 248.441L220.49 250.073Z" fill="black"/>
<path d="M301.931 232.865C300.927 233.252 320.318 276.881 328.213 277.27C336.108 277.66 373.174 260.793 373.174 260.793L364.858 250.866L336.841 252.473L322.552 222.055L301.931 232.865Z" fill="#B97964"/>
<path d="M292.18 186.765C282.123 193.408 277.139 208.446 304.1 254.879L333.215 237.098C327.326 226.232 321.086 218.332 314.151 202.593C300.173 182.47 292.18 186.765 292.18 186.765Z" fill="#407BFF"/>
<path opacity="0.5" d="M292.18 186.765C282.123 193.408 277.139 208.446 304.1 254.879L333.215 237.098C327.326 226.232 321.086 218.332 314.151 202.593C300.173 182.47 292.18 186.765 292.18 186.765Z" fill="white"/>
<path d="M386.232 250.573C386.232 248.026 385.448 245.258 384.078 245.174C382.706 245.089 375.384 245.166 375.384 245.166C375.384 243.111 379.239 240.863 377.983 239.459C376.345 237.629 366.856 245.451 366.256 247.048C365.082 250.182 364.494 250.965 364.494 250.965L369.51 262.476C369.51 262.476 378.791 268.591 380.945 266.436C383.1 264.282 382.904 261.98 382.904 261.98C382.904 261.98 385.058 258.994 384.863 257.037C384.665 255.076 386.232 253.119 386.232 250.573Z" fill="#B97964"/>
</g>
<defs>
<clipPath id="clip0_49_50445">
<rect width="990" height="660" fill="white"/>
</clipPath>
</defs>
</svg>
